<svg width="329" height="328" viewBox="0 0 329 328" fill="none" xmlns="http://www.w3.org/2000/svg">
<rect x="0.717529" width="328" height="328" rx="81" fill="#DC5230"/>
<path d="M175.677 156.358C169.307 171.619 160.747 187.416 152.983 201.033C143.672 217.371 134.421 233.733 125.232 250.12C125.223 250.135 125.211 250.147 125.196 250.156C125.181 250.164 125.163 250.168 125.146 250.168C125.129 250.167 125.112 250.162 125.098 250.153C125.083 250.144 125.071 250.131 125.064 250.115L109.171 219.425C109.043 219.176 109.046 218.931 109.18 218.689C117.715 203.311 126.304 187.908 134.945 172.482C139.928 163.586 145.329 152.865 151.147 140.319C151.627 139.285 151.65 138.653 151.92 136.93C155.127 116.439 134.596 100.501 115.5 108.747C103.614 113.877 97.1988 127.498 100.843 139.897C101.367 141.678 102.593 144.44 104.523 148.184C107.888 154.717 111.23 161.233 114.55 167.73C114.641 167.908 114.636 168.084 114.536 168.257L97.853 197.098C97.8381 197.123 97.8167 197.144 97.791 197.158C97.7654 197.172 97.7364 197.179 97.7072 197.178C97.678 197.177 97.6495 197.169 97.6248 197.153C97.6001 197.137 97.5801 197.115 97.5668 197.089C90.9243 184.234 84.2652 171.383 77.5894 158.534C61.0923 126.771 78.121 87.602 113.537 79.3149C154.25 69.7873 190.148 107.561 178.785 147.83C178.152 150.068 177.116 152.911 175.677 156.358Z" fill="white"/>
<path d="M182.669 250.092L166.322 219.897C166.31 219.874 166.304 219.849 166.304 219.824C166.304 219.799 166.31 219.774 166.322 219.751L241.595 78.3998C241.658 78.2804 241.67 78.2156 241.786 78.146C241.81 78.1316 241.837 78.124 241.865 78.124C241.893 78.124 241.921 78.1316 241.945 78.146C241.969 78.1604 241.988 78.1811 242.002 78.2058L258.162 109.383C258.174 109.405 258.181 109.43 258.181 109.455C258.181 109.481 258.174 109.506 258.162 109.528L182.942 250.092C182.929 250.117 182.909 250.138 182.885 250.152C182.861 250.166 182.833 250.174 182.805 250.174C182.777 250.174 182.75 250.166 182.726 250.152C182.702 250.138 182.682 250.117 182.669 250.092Z" fill="white"/>
<path d="M126.013 148.523C134.755 148.523 141.842 141.436 141.842 132.694C141.842 123.952 134.755 116.865 126.013 116.865C117.271 116.865 110.184 123.952 110.184 132.694C110.184 141.436 117.271 148.523 126.013 148.523Z" fill="#F4ECEA"/>
</svg>
