<svg width="466" height="133" viewBox="0 0 466 133" fill="none" xmlns="http://www.w3.org/2000/svg">
<path d="M215.064 110.445L194.163 60.2808L173.811 110.335L139.488 28.4882H154.889L174.581 73.4819L194.493 25.2979L215.394 72.9318L233.656 28.4882H249.497L215.064 110.445ZM279.689 59.4007V53.0202H294.321V106.705H279.689V99.774C279.689 99.774 275.179 108.135 263.408 108.135C248.777 108.135 236.786 95.4837 236.786 79.7524C236.786 72.2718 239.536 65.1212 244.487 59.8408C249.547 54.4503 256.258 51.4801 263.408 51.4801C275.179 51.4801 279.689 59.4007 279.689 59.4007ZM265.168 95.9237C269.019 95.9237 272.649 94.2736 275.289 91.3033C278.039 88.2231 279.579 84.2628 279.579 79.8624C279.579 75.462 278.039 71.3917 275.289 68.4215C272.649 65.4512 269.019 63.8011 265.168 63.8011C261.428 63.8011 257.798 65.4512 255.157 68.4215C252.407 71.3917 250.867 75.462 250.867 79.8624C250.867 84.2628 252.407 88.2231 255.157 91.3033C257.798 94.2736 261.428 95.9237 265.168 95.9237ZM328.869 51.4801C347.02 51.4801 350.98 66.0013 350.98 74.802V106.705H336.459V80.4124C336.459 73.4819 335.799 69.0815 332.389 66.7713C328.539 64.6812 323.808 65.2312 320.838 66.8813C317.648 68.6415 313.687 72.0518 313.687 80.1924V106.705H299.276V53.0202H313.687V59.2907C313.687 59.2907 318.638 51.4801 328.869 51.4801ZM381.513 108.025C366.772 108.025 354.891 95.3737 354.891 79.6424C354.891 72.1618 357.641 65.0112 362.592 59.7308C367.652 54.3403 374.362 51.3701 381.513 51.3701C393.064 51.3701 397.684 59.1807 397.684 59.1807V28.4882H412.206V106.595H397.684V100.104C397.684 100.104 392.734 108.025 381.513 108.025ZM383.383 95.8137C387.124 95.8137 390.754 94.1636 393.394 91.1933C396.144 88.1131 397.684 84.1527 397.684 79.7524C397.684 75.352 396.144 71.2817 393.394 68.3115C390.754 65.3412 387.124 63.6911 383.383 63.6911C379.533 63.6911 375.903 65.3412 373.262 68.3115C370.512 71.2817 368.972 75.352 368.972 79.7524C368.972 84.1527 370.512 88.1131 373.262 91.1933C375.903 94.1636 379.533 95.8137 383.383 95.8137ZM431.577 58.9607C439.388 51.5901 448.959 53.0202 448.959 53.0202V68.4215C448.959 68.4215 439.608 64.9012 434.328 71.1717C432.017 73.9219 431.577 76.4521 431.577 78.6523V106.705H417.166V53.0202H431.577V58.9607Z" fill="#01002C"/>
<path d="M72.4183 62.1773C68.7014 71.0449 63.7066 80.2239 59.1757 88.1358C53.7426 97.629 48.3448 107.136 42.9824 116.658C42.9774 116.666 42.9701 116.674 42.9613 116.679C42.9526 116.683 42.9426 116.686 42.9325 116.686C42.9225 116.685 42.9127 116.682 42.9042 116.677C42.8957 116.672 42.8888 116.664 42.8843 116.655L33.6105 98.8223C33.5363 98.678 33.538 98.5354 33.6158 98.3946C38.5965 89.4593 43.6081 80.5099 48.6506 71.5464C51.558 66.3774 54.7094 60.1481 58.1047 52.8583C58.3845 52.2575 58.3981 51.8903 58.5554 50.8889C60.4271 38.9828 48.4464 29.7219 37.3036 34.5134C30.3681 37.4939 26.6246 45.4084 28.7509 52.6128C29.0567 53.6477 29.7725 55.2527 30.8983 57.428C32.862 61.2243 34.8124 65.01 36.7495 68.7851C36.8025 68.8889 36.7999 68.991 36.7415 69.0913L27.0064 85.8496C26.9977 85.8642 26.9852 85.8762 26.9702 85.8844C26.9553 85.8926 26.9384 85.8966 26.9213 85.8961C26.9043 85.8955 26.8877 85.8904 26.8733 85.8813C26.8589 85.8722 26.8472 85.8595 26.8394 85.8443C22.9634 78.3751 19.0776 70.9076 15.1822 63.4418C5.55578 44.986 15.4924 22.2271 36.1583 17.4119C59.9154 11.8759 80.8623 33.8244 74.2317 57.2221C73.8623 58.5227 73.2579 60.1745 72.4183 62.1773Z" fill="#DC5230"/>
<path d="M76.4984 116.642L66.9595 99.0969C66.9525 99.0839 66.9489 99.0693 66.9489 99.0546C66.9489 99.0399 66.9525 99.0254 66.9595 99.0124L110.961 16.7677C110.969 16.7534 110.98 16.7414 110.994 16.733C111.008 16.7246 111.024 16.7202 111.041 16.7202C111.057 16.7202 111.073 16.7246 111.087 16.733C111.101 16.7414 111.112 16.7534 111.12 16.7677L120.55 34.883C120.557 34.896 120.561 34.9105 120.561 34.9252C120.561 34.94 120.557 34.9545 120.55 34.9675L76.6574 116.642C76.6498 116.656 76.6383 116.668 76.6243 116.677C76.6103 116.685 76.5943 116.689 76.5779 116.689C76.5616 116.689 76.5455 116.685 76.5315 116.677C76.5175 116.668 76.5061 116.656 76.4984 116.642Z" fill="#DC5230"/>
<path d="M43.4385 57.6265C48.5398 57.6265 52.6752 53.5087 52.6752 48.429C52.6752 43.3493 48.5398 39.2314 43.4385 39.2314C38.3372 39.2314 34.2018 43.3493 34.2018 48.429C34.2018 53.5087 38.3372 57.6265 43.4385 57.6265Z" fill="#DEA450"/>
</svg>
